<svg width="304" height="87" viewBox="0 0 304 87" fill="none" xmlns="http://www.w3.org/2000/svg">
<path d="M184.508 6.236V82H169.012V38.424C169.012 37.4187 169.029 36.3267 169.064 35.148C169.133 33.9693 169.237 32.7733 169.376 31.56L149.252 70.508C148.628 71.7213 147.779 72.64 146.704 73.264C145.664 73.888 144.468 74.2 143.116 74.2H140.724C139.372 74.2 138.159 73.888 137.084 73.264C136.044 72.64 135.212 71.7213 134.588 70.508L114.464 31.456C114.568 32.704 114.655 33.9347 114.724 35.148C114.793 36.3267 114.828 37.4187 114.828 38.424V82H99.332V6.236H112.748C113.511 6.236 114.169 6.25333 114.724 6.288C115.313 6.32266 115.833 6.42666 116.284 6.6C116.735 6.77333 117.133 7.05066 117.48 7.432C117.861 7.77867 118.225 8.28133 118.572 8.94L138.072 47.368C138.765 48.6853 139.424 50.0547 140.048 51.476C140.707 52.8973 141.331 54.3533 141.92 55.844C142.509 54.3187 143.116 52.828 143.74 51.372C144.399 49.916 145.092 48.5293 145.82 47.212L165.268 8.94C165.615 8.28133 165.961 7.77867 166.308 7.432C166.689 7.05066 167.105 6.77333 167.556 6.6C168.007 6.42666 168.509 6.32266 169.064 6.288C169.653 6.25333 170.329 6.236 171.092 6.236H184.508ZM216.848 19.756V37.436H240.664V50.436H216.848V68.48H247.944V82H199.168V6.236H247.944V19.756H216.848ZM254.625 13.152C255.908 12.0773 257.294 11.072 258.785 10.136C260.31 9.2 261.94 8.38533 263.673 7.692C265.406 6.964 267.261 6.40933 269.237 6.028C271.248 5.612 273.414 5.404 275.737 5.404C278.996 5.404 281.925 5.83733 284.525 6.704C287.16 7.57066 289.396 8.81866 291.233 10.448C293.07 12.0427 294.474 13.984 295.445 16.272C296.45 18.5253 296.953 21.0387 296.953 23.812C296.953 26.4467 296.589 28.7347 295.861 30.676C295.133 32.5827 294.214 34.2467 293.105 35.668C291.996 37.0893 290.765 38.32 289.413 39.36C288.096 40.4 286.83 41.3707 285.617 42.272C284.438 43.1387 283.398 44.0053 282.497 44.872C281.63 45.7387 281.076 46.7093 280.833 47.784L279.377 55.064H268.353L267.209 46.692C266.932 44.9933 267.105 43.52 267.729 42.272C268.353 40.9893 269.202 39.8453 270.277 38.84C271.386 37.8 272.617 36.8293 273.969 35.928C275.321 34.992 276.586 34.004 277.765 32.964C278.944 31.8893 279.932 30.7107 280.729 29.428C281.561 28.1107 281.977 26.5507 281.977 24.748C281.977 22.668 281.284 21.0213 279.897 19.808C278.545 18.56 276.673 17.936 274.281 17.936C272.444 17.936 270.901 18.1267 269.653 18.508C268.44 18.8893 267.382 19.3227 266.481 19.808C265.614 20.2587 264.852 20.6747 264.193 21.056C263.534 21.4373 262.876 21.628 262.217 21.628C260.726 21.628 259.617 20.9867 258.889 19.704L254.625 13.152ZM264.193 73.836C264.193 72.588 264.418 71.4267 264.869 70.352C265.354 69.2773 265.996 68.3413 266.793 67.544C267.625 66.7467 268.596 66.1227 269.705 65.672C270.814 65.1867 272.028 64.944 273.345 64.944C274.628 64.944 275.824 65.1867 276.933 65.672C278.042 66.1227 279.013 66.7467 279.845 67.544C280.677 68.3413 281.318 69.2773 281.769 70.352C282.254 71.4267 282.497 72.588 282.497 73.836C282.497 75.084 282.254 76.2627 281.769 77.372C281.318 78.4467 280.677 79.3827 279.845 80.18C279.013 80.9773 278.042 81.6013 276.933 82.052C275.824 82.5027 274.628 82.728 273.345 82.728C272.028 82.728 270.814 82.5027 269.705 82.052C268.596 81.6013 267.625 80.9773 266.793 80.18C265.996 79.3827 265.354 78.4467 264.869 77.372C264.418 76.2627 264.193 75.084 264.193 73.836Z" fill="#AD1E57"/>
<path d="M17.8757 15.252C17.8757 16.516 17.6557 17.684 17.2157 18.756C16.7837 19.82 16.1717 20.744 15.3797 21.528C14.5877 22.304 13.6317 22.912 12.5117 23.352C11.3997 23.784 10.1637 24 8.80369 24H2.01169V6.516H8.80369C10.1637 6.516 11.3997 6.736 12.5117 7.176C13.6317 7.616 14.5877 8.224 15.3797 9C16.1717 9.776 16.7837 10.7 17.2157 11.772C17.6557 12.836 17.8757 13.996 17.8757 15.252ZM13.7237 15.252C13.7237 14.388 13.6117 13.608 13.3877 12.912C13.1637 12.216 12.8397 11.628 12.4157 11.148C11.9997 10.66 11.4877 10.288 10.8797 10.032C10.2717 9.768 9.57969 9.636 8.80369 9.636H6.09169V20.88H8.80369C9.57969 20.88 10.2717 20.752 10.8797 20.496C11.4877 20.232 11.9997 19.86 12.4157 19.38C12.8397 18.892 13.1637 18.3 13.3877 17.604C13.6117 16.908 13.7237 16.124 13.7237 15.252ZM37.4295 15.252C37.4295 16.516 37.2095 17.692 36.7695 18.78C36.3375 19.868 35.7255 20.816 34.9335 21.624C34.1415 22.424 33.1855 23.052 32.0655 23.508C30.9535 23.964 29.7175 24.192 28.3575 24.192C26.9975 24.192 25.7575 23.964 24.6375 23.508C23.5175 23.052 22.5575 22.424 21.7575 21.624C20.9655 20.816 20.3495 19.868 19.9095 18.78C19.4775 17.692 19.2615 16.516 19.2615 15.252C19.2615 13.988 19.4775 12.812 19.9095 11.724C20.3495 10.636 20.9655 9.692 21.7575 8.892C22.5575 8.092 23.5175 7.464 24.6375 7.008C25.7575 6.552 26.9975 6.324 28.3575 6.324C29.7175 6.324 30.9535 6.556 32.0655 7.02C33.1855 7.476 34.1415 8.104 34.9335 8.904C35.7255 9.704 36.3375 10.648 36.7695 11.736C37.2095 12.824 37.4295 13.996 37.4295 15.252ZM33.2775 15.252C33.2775 14.388 33.1655 13.612 32.9415 12.924C32.7175 12.228 32.3935 11.64 31.9695 11.16C31.5535 10.68 31.0415 10.312 30.4335 10.056C29.8255 9.8 29.1335 9.672 28.3575 9.672C27.5735 9.672 26.8735 9.8 26.2575 10.056C25.6495 10.312 25.1335 10.68 24.7095 11.16C24.2935 11.64 23.9735 12.228 23.7495 12.924C23.5255 13.612 23.4135 14.388 23.4135 15.252C23.4135 16.124 23.5255 16.908 23.7495 17.604C23.9735 18.292 24.2935 18.876 24.7095 19.356C25.1335 19.836 25.6495 20.204 26.2575 20.46C26.8735 20.708 27.5735 20.832 28.3575 20.832C29.1335 20.832 29.8255 20.708 30.4335 20.46C31.0415 20.204 31.5535 19.836 31.9695 19.356C32.3935 18.876 32.7175 18.292 32.9415 17.604C33.1655 16.908 33.2775 16.124 33.2775 15.252ZM52.7392 17.352V24H48.6832V17.352L42.3472 6.516H45.9232C46.2752 6.516 46.5512 6.6 46.7512 6.768C46.9592 6.928 47.1312 7.136 47.2672 7.392L49.7392 12.48C49.9472 12.88 50.1352 13.256 50.3032 13.608C50.4712 13.952 50.6192 14.292 50.7472 14.628C50.8672 14.284 51.0032 13.94 51.1552 13.596C51.3152 13.244 51.4992 12.872 51.7072 12.48L54.1552 7.392C54.2112 7.288 54.2792 7.184 54.3592 7.08C54.4392 6.976 54.5312 6.884 54.6352 6.804C54.7472 6.716 54.8712 6.648 55.0072 6.6C55.1512 6.544 55.3072 6.516 55.4752 6.516H59.0753L52.7392 17.352ZM76.4998 15.252C76.4998 16.516 76.2798 17.692 75.8398 18.78C75.4078 19.868 74.7958 20.816 74.0038 21.624C73.2118 22.424 72.2558 23.052 71.1358 23.508C70.0238 23.964 68.7878 24.192 67.4278 24.192C66.0678 24.192 64.8278 23.964 63.7078 23.508C62.5878 23.052 61.6278 22.424 60.8278 21.624C60.0358 20.816 59.4198 19.868 58.9798 18.78C58.5478 17.692 58.3318 16.516 58.3318 15.252C58.3318 13.988 58.5478 12.812 58.9798 11.724C59.4198 10.636 60.0358 9.692 60.8278 8.892C61.6278 8.092 62.5878 7.464 63.7078 7.008C64.8278 6.552 66.0678 6.324 67.4278 6.324C68.7878 6.324 70.0238 6.556 71.1358 7.02C72.2558 7.476 73.2118 8.104 74.0038 8.904C74.7958 9.704 75.4078 10.648 75.8398 11.736C76.2798 12.824 76.4998 13.996 76.4998 15.252ZM72.3478 15.252C72.3478 14.388 72.2358 13.612 72.0118 12.924C71.7878 12.228 71.4638 11.64 71.0398 11.16C70.6238 10.68 70.1118 10.312 69.5038 10.056C68.8958 9.8 68.2038 9.672 67.4278 9.672C66.6438 9.672 65.9438 9.8 65.3278 10.056C64.7198 10.312 64.2038 10.68 63.7798 11.16C63.3638 11.64 63.0438 12.228 62.8198 12.924C62.5958 13.612 62.4838 14.388 62.4838 15.252C62.4838 16.124 62.5958 16.908 62.8198 17.604C63.0438 18.292 63.3638 18.876 63.7798 19.356C64.2038 19.836 64.7198 20.204 65.3278 20.46C65.9438 20.708 66.6438 20.832 67.4278 20.832C68.2038 20.832 68.8958 20.708 69.5038 20.46C70.1118 20.204 70.6238 19.836 71.0398 19.356C71.4638 18.876 71.7878 18.292 72.0118 17.604C72.2358 16.908 72.3478 16.124 72.3478 15.252ZM86.1827 20.796C86.7267 20.796 87.2107 20.708 87.6347 20.532C88.0667 20.348 88.4307 20.088 88.7267 19.752C89.0227 19.416 89.2467 19.008 89.3987 18.528C89.5587 18.04 89.6387 17.488 89.6387 16.872V6.516H93.6947V16.872C93.6947 17.944 93.5187 18.928 93.1667 19.824C92.8227 20.72 92.3267 21.492 91.6787 22.14C91.0307 22.788 90.2427 23.292 89.3147 23.652C88.3867 24.012 87.3427 24.192 86.1827 24.192C85.0147 24.192 83.9667 24.012 83.0387 23.652C82.1107 23.292 81.3227 22.788 80.6747 22.14C80.0267 21.492 79.5307 20.72 79.1867 19.824C78.8427 18.928 78.6707 17.944 78.6707 16.872V6.516H82.7267V16.86C82.7267 17.476 82.8027 18.028 82.9547 18.516C83.1147 18.996 83.3427 19.408 83.6387 19.752C83.9347 20.088 84.2947 20.348 84.7187 20.532C85.1507 20.708 85.6387 20.796 86.1827 20.796ZM13.0915 46.316L11.4715 41.528C11.3515 41.224 11.2235 40.868 11.0875 40.46C10.9515 40.044 10.8155 39.596 10.6795 39.116C10.5595 39.604 10.4315 40.056 10.2955 40.472C10.1595 40.888 10.0315 41.248 9.91153 41.552L8.30353 46.316H13.0915ZM19.5355 53H16.3915C16.0395 53 15.7555 52.92 15.5395 52.76C15.3235 52.592 15.1595 52.38 15.0475 52.124L14.0155 49.076H7.36753L6.33553 52.124C6.24753 52.348 6.08753 52.552 5.85553 52.736C5.63153 52.912 5.35153 53 5.01553 53H1.84753L8.61553 35.516H12.7675L19.5355 53ZM32.1121 48.476C32.2081 48.476 32.3041 48.496 32.4001 48.536C32.4961 48.568 32.5881 48.628 32.6761 48.716L34.2841 50.408C33.5801 51.328 32.6961 52.024 31.6321 52.496C30.5761 52.96 29.3241 53.192 27.8761 53.192C26.5481 53.192 25.3561 52.968 24.3001 52.52C23.2521 52.064 22.3601 51.44 21.6241 50.648C20.8961 49.848 20.3361 48.904 19.9441 47.816C19.5521 46.72 19.3561 45.532 19.3561 44.252C19.3561 42.948 19.5681 41.752 19.9921 40.664C20.4161 39.568 21.0121 38.624 21.7801 37.832C22.5481 37.04 23.4681 36.424 24.5401 35.984C25.6121 35.544 26.7921 35.324 28.0801 35.324C28.7361 35.324 29.3521 35.384 29.9281 35.504C30.5121 35.616 31.0561 35.776 31.5601 35.984C32.0641 36.184 32.5281 36.428 32.9521 36.716C33.3761 37.004 33.7521 37.316 34.0801 37.652L32.7121 39.488C32.6241 39.6 32.5201 39.704 32.4001 39.8C32.2801 39.888 32.1121 39.932 31.8961 39.932C31.7521 39.932 31.6161 39.9 31.4881 39.836C31.3601 39.772 31.2241 39.696 31.0801 39.608C30.9361 39.512 30.7761 39.412 30.6001 39.308C30.4321 39.196 30.2281 39.096 29.9881 39.008C29.7561 38.912 29.4801 38.832 29.1601 38.768C28.8481 38.704 28.4801 38.672 28.0561 38.672C27.3841 38.672 26.7681 38.796 26.2081 39.044C25.6561 39.292 25.1761 39.656 24.7681 40.136C24.3681 40.608 24.0561 41.192 23.8321 41.888C23.6161 42.576 23.5081 43.364 23.5081 44.252C23.5081 45.148 23.6281 45.944 23.8681 46.64C24.1161 47.336 24.4481 47.924 24.8641 48.404C25.2881 48.876 25.7801 49.236 26.3401 49.484C26.9001 49.732 27.5001 49.856 28.1401 49.856C28.5081 49.856 28.8441 49.84 29.1481 49.808C29.4521 49.768 29.7361 49.708 30.0001 49.628C30.2641 49.54 30.5121 49.428 30.7441 49.292C30.9761 49.148 31.2121 48.968 31.4521 48.752C31.5481 48.672 31.6521 48.608 31.7641 48.56C31.8761 48.504 31.9921 48.476 32.1121 48.476ZM47.4402 48.476C47.5362 48.476 47.6322 48.496 47.7282 48.536C47.8242 48.568 47.9162 48.628 48.0042 48.716L49.6122 50.408C48.9082 51.328 48.0242 52.024 46.9602 52.496C45.9042 52.96 44.6522 53.192 43.2042 53.192C41.8762 53.192 40.6842 52.968 39.6282 52.52C38.5802 52.064 37.6882 51.44 36.9522 50.648C36.2242 49.848 35.6642 48.904 35.2722 47.816C34.8802 46.72 34.6842 45.532 34.6842 44.252C34.6842 42.948 34.8962 41.752 35.3202 40.664C35.7442 39.568 36.3402 38.624 37.1082 37.832C37.8762 37.04 38.7962 36.424 39.8682 35.984C40.9402 35.544 42.1202 35.324 43.4082 35.324C44.0642 35.324 44.6802 35.384 45.2562 35.504C45.8402 35.616 46.3842 35.776 46.8882 35.984C47.3922 36.184 47.8562 36.428 48.2802 36.716C48.7042 37.004 49.0802 37.316 49.4082 37.652L48.0402 39.488C47.9522 39.6 47.8482 39.704 47.7282 39.8C47.6082 39.888 47.4402 39.932 47.2242 39.932C47.0802 39.932 46.9442 39.9 46.8162 39.836C46.6882 39.772 46.5522 39.696 46.4082 39.608C46.2642 39.512 46.1042 39.412 45.9282 39.308C45.7602 39.196 45.5562 39.096 45.3162 39.008C45.0842 38.912 44.8082 38.832 44.4882 38.768C44.1762 38.704 43.8082 38.672 43.3842 38.672C42.7122 38.672 42.0962 38.796 41.5362 39.044C40.9842 39.292 40.5042 39.656 40.0962 40.136C39.6962 40.608 39.3842 41.192 39.1602 41.888C38.9442 42.576 38.8362 43.364 38.8362 44.252C38.8362 45.148 38.9562 45.944 39.1962 46.64C39.4442 47.336 39.7762 47.924 40.1922 48.404C40.6162 48.876 41.1082 49.236 41.6682 49.484C42.2282 49.732 42.8282 49.856 43.4682 49.856C43.8362 49.856 44.1722 49.84 44.4762 49.808C44.7802 49.768 45.0642 49.708 45.3282 49.628C45.5922 49.54 45.8402 49.428 46.0722 49.292C46.3042 49.148 46.5402 48.968 46.7802 48.752C46.8762 48.672 46.9802 48.608 47.0922 48.56C47.2042 48.504 47.3202 48.476 47.4402 48.476ZM55.4628 38.636V42.716H60.9588V45.716H55.4628V49.88H62.6388V53H51.3828V35.516H62.6388V38.636H55.4628ZM71.3086 44.096C72.3646 44.096 73.1246 43.844 73.5886 43.34C74.0526 42.836 74.2846 42.132 74.2846 41.228C74.2846 40.828 74.2246 40.464 74.1046 40.136C73.9846 39.808 73.8006 39.528 73.5526 39.296C73.3126 39.056 73.0046 38.872 72.6286 38.744C72.2606 38.616 71.8206 38.552 71.3086 38.552H69.1966V44.096H71.3086ZM71.3086 35.516C72.5406 35.516 73.5966 35.664 74.4766 35.96C75.3646 36.248 76.0926 36.648 76.6606 37.16C77.2366 37.672 77.6606 38.276 77.9326 38.972C78.2046 39.668 78.3406 40.42 78.3406 41.228C78.3406 42.1 78.2006 42.9 77.9206 43.628C77.6406 44.356 77.2126 44.98 76.6366 45.5C76.0606 46.02 75.3286 46.428 74.4406 46.724C73.5606 47.012 72.5166 47.156 71.3086 47.156H69.1966V53H65.1406V35.516H71.3086ZM92.9624 38.732H88.0424V53H83.9864V38.732H79.0664V35.516H92.9624V38.732ZM19.7624 73.252C19.7624 74.516 19.5424 75.684 19.1024 76.756C18.6704 77.82 18.0584 78.744 17.2664 79.528C16.4744 80.304 15.5184 80.912 14.3984 81.352C13.2864 81.784 12.0504 82 10.6904 82H3.89841V64.516H10.6904C12.0504 64.516 13.2864 64.736 14.3984 65.176C15.5184 65.616 16.4744 66.224 17.2664 67C18.0584 67.776 18.6704 68.7 19.1024 69.772C19.5424 70.836 19.7624 71.996 19.7624 73.252ZM15.6104 73.252C15.6104 72.388 15.4984 71.608 15.2744 70.912C15.0504 70.216 14.7264 69.628 14.3024 69.148C13.8864 68.66 13.3744 68.288 12.7664 68.032C12.1584 67.768 11.4664 67.636 10.6904 67.636H7.97841V78.88H10.6904C11.4664 78.88 12.1584 78.752 12.7664 78.496C13.3744 78.232 13.8864 77.86 14.3024 77.38C14.7264 76.892 15.0504 76.3 15.2744 75.604C15.4984 74.908 15.6104 74.124 15.6104 73.252ZM30.7868 75.316L29.1668 70.528C29.0468 70.224 28.9188 69.868 28.7828 69.46C28.6468 69.044 28.5108 68.596 28.3748 68.116C28.2548 68.604 28.1268 69.056 27.9908 69.472C27.8548 69.888 27.7268 70.248 27.6068 70.552L25.9988 75.316H30.7868ZM37.2308 82H34.0868C33.7348 82 33.4508 81.92 33.2348 81.76C33.0188 81.592 32.8548 81.38 32.7428 81.124L31.7108 78.076H25.0628L24.0308 81.124C23.9428 81.348 23.7828 81.552 23.5508 81.736C23.3268 81.912 23.0468 82 22.7108 82H19.5428L26.3108 64.516H30.4628L37.2308 82ZM49.4624 67.732H44.5424V82H40.4864V67.732H35.5664V64.516H49.4624V67.732ZM55.6034 82H51.5234V64.516H55.6034V82ZM74.2405 64.516V82H72.1285C71.8165 82 71.5525 81.952 71.3365 81.856C71.1285 81.752 70.9205 81.576 70.7125 81.328L62.4685 70.9C62.5005 71.212 62.5205 71.516 62.5285 71.812C62.5445 72.1 62.5525 72.372 62.5525 72.628V82H58.9765V64.516H61.1125C61.2885 64.516 61.4365 64.524 61.5565 64.54C61.6765 64.556 61.7845 64.588 61.8805 64.636C61.9765 64.676 62.0685 64.736 62.1565 64.816C62.2445 64.896 62.3445 65.004 62.4565 65.14L70.7725 75.64C70.7325 75.304 70.7045 74.98 70.6885 74.668C70.6725 74.348 70.6645 74.048 70.6645 73.768V64.516H74.2405ZM86.0328 72.94H92.2488V80.32C91.3528 80.976 90.3968 81.452 89.3808 81.748C88.3728 82.044 87.3168 82.192 86.2128 82.192C84.7728 82.192 83.4608 81.968 82.2768 81.52C81.1008 81.064 80.0928 80.44 79.2528 79.648C78.4128 78.848 77.7648 77.904 77.3088 76.816C76.8528 75.72 76.6248 74.532 76.6248 73.252C76.6248 71.948 76.8408 70.752 77.2728 69.664C77.7048 68.568 78.3208 67.624 79.1208 66.832C79.9288 66.04 80.9008 65.424 82.0368 64.984C83.1808 64.544 84.4568 64.324 85.8648 64.324C86.5928 64.324 87.2768 64.384 87.9168 64.504C88.5568 64.624 89.1448 64.788 89.6808 64.996C90.2248 65.204 90.7208 65.452 91.1688 65.74C91.6168 66.028 92.0168 66.34 92.3688 66.676L91.1928 68.464C91.0088 68.744 90.7688 68.916 90.4728 68.98C90.1848 69.044 89.8728 68.972 89.5368 68.764C89.2168 68.572 88.9128 68.408 88.6248 68.272C88.3448 68.128 88.0568 68.012 87.7608 67.924C87.4648 67.836 87.1528 67.772 86.8248 67.732C86.4968 67.692 86.1288 67.672 85.7208 67.672C84.9608 67.672 84.2768 67.808 83.6688 68.08C83.0608 68.344 82.5408 68.72 82.1088 69.208C81.6848 69.696 81.3568 70.284 81.1248 70.972C80.8928 71.652 80.7768 72.412 80.7768 73.252C80.7768 74.18 80.9048 75.004 81.1608 75.724C81.4168 76.444 81.7768 77.052 82.2408 77.548C82.7128 78.044 83.2728 78.424 83.9208 78.688C84.5768 78.944 85.3008 79.072 86.0928 79.072C86.5808 79.072 87.0208 79.024 87.4128 78.928C87.8128 78.832 88.2008 78.704 88.5768 78.544V75.892H86.8488C86.5928 75.892 86.3928 75.824 86.2488 75.688C86.1048 75.552 86.0328 75.38 86.0328 75.172V72.94Z" fill="#AD1E57"/>
</svg>
